<?xml version="1.0" standalone="no"?>
<!DOCTYPE svg PUBLIC "-//W3C//DTD SVG 20010904//EN"
 "http://www.w3.org/TR/2001/REC-SVG-20010904/DTD/svg10.dtd">
<svg version="1.0" xmlns="http://www.w3.org/2000/svg"
 width="1544.000000pt" height="1230.000000pt" viewBox="0 0 1544.000000 1230.000000"
 preserveAspectRatio="xMidYMid meet">

<g transform="translate(0.000000,1230.000000) scale(0.100000,-0.100000)"
fill="#000000" stroke="none">
<path d="M0 6150 l0 -6150 7720 0 7720 0 0 6150 0 6150 -7720 0 -7720 0 0
-6150z m7542 4020 c6 -70 12 -121 38 -330 6 -47 15 -125 20 -175 5 -49 16
-155 25 -235 29 -257 31 -290 21 -300 -6 -6 -36 -10 -67 -10 -63 0 -69 7 -69
81 0 20 -4 60 -10 90 -5 30 -15 109 -21 176 -7 68 -16 128 -20 135 -5 8 -24 8
-78 0 -38 -7 -87 -12 -108 -12 -64 0 -65 -3 -53 -130 6 -63 15 -146 20 -184 5
-39 10 -98 12 -131 l3 -60 -58 -9 c-38 -6 -61 -6 -68 1 -5 5 -14 50 -20 99 -5
49 -16 152 -25 229 -8 77 -21 199 -29 270 -8 72 -19 168 -24 215 -5 47 -15
131 -22 188 -6 56 -10 105 -7 107 8 9 118 26 127 21 8 -6 12 -31 36 -251 8
-71 17 -156 21 -188 l7 -59 41 6 c23 3 75 8 117 12 42 3 81 9 86 13 10 6 8 39
-27 356 -16 148 -17 143 33 148 94 9 91 11 99 -73z m653 50 c33 -5 106 -14
163 -21 l103 -12 -3 -61 -3 -61 -64 4 c-36 2 -108 9 -160 16 -53 7 -100 9
-105 4 -5 -4 -12 -40 -17 -81 -4 -40 -13 -115 -19 -167 -6 -51 -8 -97 -3 -101
4 -5 55 -13 112 -19 166 -18 161 -14 140 -97 l-12 -46 -71 7 c-39 3 -96 10
-125 16 -30 5 -58 6 -62 2 -7 -7 -17 -76 -40 -282 -5 -46 -8 -86 -6 -87 3 -4
98 -18 236 -35 l93 -12 -6 -50 c-9 -80 20 -77 -334 -37 -46 5 -98 12 -114 15
l-31 7 6 67 c4 36 11 102 16 146 9 80 30 257 57 480 8 66 21 180 29 254 21
187 14 174 94 166 36 -3 93 -10 126 -15z m-1581 -188 c9 -24 14 -47 11 -52 -3
-5 -40 -20 -83 -34 -42 -15 -83 -30 -90 -35 -11 -6 -3 -38 38 -152 28 -79 65
-182 82 -229 16 -47 40 -114 53 -150 107 -300 135 -387 133 -404 -2 -14 -18
-26 -53 -38 -27 -10 -55 -16 -61 -14 -6 2 -25 46 -43 98 -18 51 -43 122 -56
158 -13 36 -56 157 -95 270 -81 231 -139 390 -146 402 -3 4 -43 -6 -90 -23
-48 -17 -92 -28 -100 -25 -20 8 -45 98 -30 112 6 7 70 32 141 57 72 25 180 63
240 84 122 44 122 44 149 -25z m2799 -128 c36 -19 69 -39 72 -44 3 -5 -1 -28
-8 -52 -8 -24 -22 -72 -32 -108 -10 -36 -24 -87 -32 -115 -8 -27 -19 -68 -25
-90 -6 -22 -16 -60 -23 -85 -7 -25 -20 -70 -28 -100 -42 -153 -49 -178 -59
-213 -25 -82 -22 -79 372 421 79 100 149 182 154 182 21 1 156 -75 156 -88 0
-7 -22 -54 -49 -105 -42 -80 -245 -476 -401 -784 -28 -57 -57 -103 -64 -103
-21 0 -97 40 -102 54 -3 8 30 83 74 167 185 357 252 492 247 497 -3 3 -11 -2
-18 -11 -111 -144 -441 -558 -452 -567 -11 -9 -25 -6 -66 16 -51 28 -51 29
-45 69 3 22 13 65 21 95 9 30 23 78 30 105 7 28 25 93 40 145 14 52 32 118 40
145 7 28 23 85 34 129 12 43 20 80 18 83 -7 6 -44 -61 -142 -257 -113 -226
-195 -383 -205 -394 -9 -9 -95 28 -105 45 -4 5 39 95 93 201 55 106 166 324
247 483 81 160 152 296 158 303 14 18 26 15 100 -24z m-3933 -439 c0 -7 -34
-38 -75 -69 -41 -31 -75 -59 -75 -63 0 -4 82 -115 182 -247 346 -457 408 -541
408 -552 0 -12 -82 -74 -98 -74 -12 0 -63 65 -367 468 -126 167 -234 306 -241
309 -7 2 -46 -21 -87 -51 -40 -31 -76 -56 -79 -56 -8 0 -68 87 -68 99 0 6 96
83 213 171 l212 161 38 -42 c20 -23 37 -47 37 -54z m4960 -210 l44 -45 -40
-42 c-61 -65 -474 -515 -528 -577 -82 -92 -88 -143 -26 -203 48 -45 93 -50
145 -18 19 11 96 89 172 172 121 133 223 244 409 447 l51 55 46 -38 c26 -21
47 -41 47 -45 0 -6 -34 -44 -284 -316 -347 -376 -358 -387 -435 -413 -87 -30
-189 3 -260 85 -51 57 -65 100 -59 178 7 83 39 131 219 325 79 86 211 229 292
318 82 89 152 162 156 162 4 0 27 -20 51 -45z m-5691 -334 l44 -39 -79 -93
c-43 -50 -92 -108 -108 -127 l-30 -35 30 -26 c17 -14 76 -65 131 -113 55 -49
107 -88 115 -88 9 0 42 33 76 73 33 39 70 82 82 95 l22 23 41 -34 c22 -18 42
-38 44 -43 2 -5 -33 -51 -78 -102 -44 -51 -79 -99 -77 -107 3 -16 269 -247
279 -243 3 2 52 56 108 121 56 64 107 117 112 117 5 0 28 -17 50 -38 l41 -38
-147 -172 c-140 -163 -172 -190 -190 -161 -4 5 -35 33 -69 62 -57 48 -629 540
-720 619 l-39 34 153 177 c84 97 155 177 159 177 3 -1 26 -18 50 -39z m6380
-415 c45 -29 98 -96 118 -149 18 -51 15 -126 -7 -173 -23 -46 -120 -144 -144
-144 -13 0 -76 78 -76 94 0 3 25 30 55 59 47 45 55 58 55 90 0 28 -8 46 -36
77 -48 53 -96 55 -169 8 -68 -45 -104 -116 -116 -229 -24 -235 -48 -308 -128
-382 -57 -54 -107 -81 -178 -95 -104 -23 -213 40 -269 154 -22 46 -26 64 -22
121 3 57 9 76 36 116 34 49 128 127 153 127 15 0 69 -75 69 -96 0 -7 -23 -29
-50 -49 -89 -65 -106 -141 -46 -201 28 -28 42 -34 75 -34 73 0 147 52 181 125
10 22 23 78 29 125 34 253 42 283 96 354 32 42 113 97 175 120 64 23 145 16
199 -18z m-6929 -281 c28 -14 50 -29 50 -33 0 -4 -30 -61 -66 -127 -98 -179
-99 -155 14 -218 216 -120 209 -117 225 -99 8 9 36 59 63 111 27 51 54 96 61
98 16 6 103 -44 103 -59 0 -6 -19 -45 -42 -87 -83 -153 -82 -143 -18 -178 252
-136 272 -145 281 -132 5 8 39 69 75 137 37 68 72 126 79 128 14 6 90 -29 100
-46 7 -11 -21 -69 -102 -215 -28 -49 -63 -114 -78 -142 -15 -29 -34 -53 -42
-53 -8 0 -99 46 -202 101 -501 273 -635 345 -718 390 -35 18 -63 37 -63 42 0
10 160 312 197 370 13 20 26 37 28 37 3 0 28 -11 55 -25z m7333 -371 c15 -30
25 -60 21 -65 -3 -6 -43 -28 -88 -49 -44 -21 -130 -61 -191 -90 -60 -29 -155
-74 -210 -100 -244 -116 -355 -169 -426 -203 -42 -21 -83 -37 -90 -37 -8 0
-27 24 -41 54 -33 66 -38 61 132 141 69 32 197 93 285 135 88 42 202 97 254
121 52 24 142 67 200 96 58 28 111 52 116 52 6 1 23 -24 38 -55z m125 -473
c72 -37 110 -95 132 -198 16 -77 1 -137 -49 -194 -38 -46 -67 -62 -175 -100
-87 -31 -100 -29 -109 20 -3 16 -9 40 -12 54 -7 25 -3 27 62 47 91 27 131 53
148 94 23 56 -4 124 -59 150 -38 18 -90 13 -191 -17 -51 -16 -118 -36 -345
-101 -171 -50 -204 -63 -237 -98 -52 -54 -31 -150 42 -185 31 -15 39 -15 122
7 149 38 136 40 157 -26 21 -66 21 -65 -63 -90 -250 -73 -390 -4 -416 207 -10
81 8 135 64 190 48 48 113 78 261 119 148 42 177 50 325 94 176 52 278 60 343
27z m-7763 -61 c72 -17 159 -37 195 -46 36 -8 110 -26 165 -39 99 -24 393 -94
490 -117 74 -17 76 -21 58 -81 -8 -29 -18 -55 -21 -59 -4 -3 -41 2 -82 13 -67
17 -179 44 -529 126 -57 13 -108 22 -114 20 -5 -1 146 -74 336 -162 384 -176
362 -159 335 -247 l-12 -40 -385 6 c-389 6 -411 4 -280 -28 71 -17 285 -67
394 -93 161 -37 218 -52 226 -60 8 -8 -11 -96 -24 -109 -3 -4 -26 -2 -49 4
-24 7 -92 23 -153 37 -164 38 -276 65 -315 75 -43 12 -277 67 -490 116 -41 9
-79 20 -83 24 -8 7 26 166 37 177 5 5 764 -16 803 -22 81 -14 23 21 -215 130
-141 65 -295 136 -342 158 -47 21 -100 46 -118 53 -18 8 -36 22 -39 31 -6 14
21 143 34 166 2 4 14 5 26 2 12 -3 81 -19 152 -35z m8003 -702 c5 -7 12 -37
13 -65 5 -62 6 -60 -101 -74 -41 -5 -129 -16 -195 -24 -66 -8 -165 -20 -220
-25 -55 -5 -155 -15 -223 -21 -67 -7 -125 -9 -129 -6 -9 10 -21 85 -14 95 11
17 321 67 656 107 77 9 149 18 160 19 11 2 25 4 31 5 6 0 16 -5 22 -11z m-947
-168 c8 -72 4 -80 -40 -80 -20 0 -52 -4 -71 -10 -19 -6 -38 -6 -43 -1 -5 5
-11 36 -14 69 l-6 60 49 7 c27 4 54 8 59 10 6 2 21 3 35 2 23 -2 26 -7 31 -57z
m-161 -721 c70 -9 192 -25 390 -49 47 -6 108 -15 135 -20 151 -30 206 -40 225
-40 17 0 20 -6 20 -50 0 -34 -5 -52 -14 -56 -23 -9 -277 14 -571 50 -227 29
-289 37 -295 41 -6 4 4 86 16 123 4 14 -1 14 94 1z m-5998 -99 c29 -110 32
-105 -89 -162 -210 -98 -357 -167 -498 -232 -127 -59 -152 -73 -145 -79 3 -2
181 2 395 9 215 7 402 13 416 13 25 1 28 -4 47 -81 11 -46 18 -86 16 -90 -5
-9 -75 -28 -239 -66 -222 -53 -432 -102 -625 -148 -102 -24 -195 -46 -207 -49
-19 -5 -24 1 -38 47 -25 84 -45 71 200 128 320 75 471 112 490 121 13 6 -79 7
-250 2 -148 -4 -321 -7 -384 -8 l-114 0 -13 55 c-7 30 -10 59 -7 63 4 7 288
147 298 147 1 0 61 28 131 61 71 34 158 75 194 91 36 17 60 33 53 35 -6 2 -60
-8 -120 -22 -165 -39 -217 -52 -358 -85 -71 -17 -151 -35 -176 -42 -26 -6 -53
-8 -62 -5 -20 7 -40 99 -24 109 6 4 54 16 107 28 52 12 106 26 120 30 14 5 43
12 65 16 22 3 54 10 70 14 47 14 414 101 570 136 39 9 79 20 90 24 11 5 31 8
45 7 21 -2 27 -10 42 -67z m6961 -27 l60 -6 -7 -61 c-3 -33 -9 -63 -14 -67 -6
-6 -111 6 -149 17 -9 2 -10 19 -6 56 6 60 19 82 41 73 9 -3 42 -8 75 -12z
m-826 -224 c42 -11 80 -22 85 -25 19 -12 -6 -124 -28 -124 -7 0 -50 9 -95 20
-71 17 -86 17 -114 6 -49 -21 -75 -61 -75 -116 0 -42 4 -52 32 -75 34 -29 57
-40 131 -61 26 -8 68 -20 95 -28 335 -99 471 -136 492 -136 32 0 85 32 100 61
7 11 12 41 13 66 0 64 -29 89 -150 129 l-98 32 2 34 c3 54 20 88 44 88 37 0
200 -60 239 -88 75 -53 105 -122 94 -216 -15 -142 -88 -223 -214 -241 -47 -7
-99 2 -210 35 -36 10 -166 49 -290 85 -251 74 -290 89 -339 131 -37 31 -81
114 -81 154 0 14 8 57 17 95 15 61 24 77 68 121 76 76 147 90 282 53z m-5788
-759 c56 -102 101 -190 101 -197 0 -16 -87 -67 -103 -60 -6 3 -43 64 -82 137
-38 73 -75 134 -80 136 -10 4 -271 -132 -301 -157 -12 -10 -5 -29 46 -124 33
-62 60 -115 60 -118 0 -11 -92 -58 -105 -53 -7 2 -39 52 -70 110 -34 64 -63
106 -72 106 -13 0 -226 -111 -301 -157 l-23 -14 47 -87 c26 -48 60 -110 75
-139 16 -29 29 -57 29 -62 0 -6 -23 -22 -52 -37 l-51 -26 -16 21 c-9 12 -32
51 -51 89 -19 37 -63 118 -97 181 -35 62 -63 116 -63 120 0 8 22 21 150 89 52
28 261 140 465 251 289 157 372 198 382 188 6 -7 57 -95 112 -197z m5563 89
c128 -62 278 -133 333 -159 55 -27 165 -79 245 -117 203 -96 186 -83 172 -131
-7 -22 -20 -50 -30 -62 l-18 -22 -84 40 c-109 51 -261 123 -425 202 -71 34
-211 100 -310 147 -99 46 -183 88 -188 92 -11 11 42 121 58 121 7 0 118 -50
247 -111z m-231 -245 c25 -8 60 -27 79 -43 l34 -28 -30 -46 c-16 -26 -35 -47
-42 -47 -7 0 -35 11 -62 25 -73 37 -110 34 -154 -15 -51 -56 -50 -96 5 -155
77 -84 162 -93 349 -40 137 40 263 40 340 3 143 -70 216 -205 175 -327 -20
-60 -91 -143 -148 -173 -76 -38 -208 -10 -301 65 l-30 24 22 35 c43 69 50 71
113 32 74 -46 118 -53 158 -24 38 26 61 68 61 111 0 25 -11 43 -48 79 -79 80
-158 87 -339 33 -123 -37 -266 -39 -336 -4 -64 31 -143 104 -169 154 -29 58
-29 148 1 205 34 66 101 128 158 146 51 15 90 13 164 -10z m-4974 -364 c79
-91 143 -170 143 -177 0 -14 -70 -73 -86 -73 -7 0 -56 52 -110 115 -53 63
-104 115 -111 115 -18 0 -257 -207 -261 -226 -2 -8 18 -40 45 -71 26 -30 63
-74 81 -97 l34 -41 -42 -37 c-24 -21 -46 -38 -50 -38 -4 0 -44 43 -89 95 -45
52 -86 95 -92 95 -14 0 -279 -229 -279 -241 0 -5 45 -61 100 -125 55 -65 100
-120 100 -124 0 -12 -80 -82 -89 -78 -11 4 -301 341 -301 350 0 3 77 73 172
155 94 81 282 243 417 360 135 117 253 211 261 210 8 -1 79 -76 157 -167z
m4649 -297 c110 -120 227 -247 260 -283 156 -165 204 -242 204 -323 0 -59 -22
-109 -72 -164 -59 -63 -109 -87 -183 -87 -99 -1 -140 29 -343 249 -205 221
-397 430 -426 463 l-20 22 40 41 c21 22 46 38 54 37 17 -3 72 -61 388 -406
118 -127 226 -241 242 -252 35 -25 96 -26 133 -2 84 56 76 132 -28 244 -173
186 -495 537 -519 565 l-29 34 39 40 c21 21 43 39 50 39 6 0 101 -98 210 -217z
m-4186 -130 c115 -87 210 -162 210 -166 0 -12 -64 -96 -73 -97 -4 0 -42 25
-83 55 -41 31 -79 53 -84 50 -5 -3 -131 -169 -281 -368 -149 -199 -284 -375
-298 -390 l-27 -28 -47 36 c-26 20 -47 42 -47 49 0 8 44 72 97 142 53 71 183
245 290 386 106 141 193 262 193 267 0 6 -31 34 -70 63 -38 29 -70 59 -70 66
0 20 53 92 67 92 7 0 107 -71 223 -157z m3546 -283 c290 -563 414 -810 414
-824 0 -17 -68 -56 -97 -56 -14 0 -56 73 -173 304 -200 393 -211 408 -158 226
126 -440 168 -593 168 -607 0 -12 -88 -63 -108 -63 -8 0 -190 221 -406 493
-38 48 -74 87 -79 87 -5 0 66 -146 157 -325 91 -179 166 -330 166 -335 0 -11
-73 -50 -94 -50 -17 0 -50 60 -316 583 -111 219 -200 404 -197 411 3 7 38 30
78 51 l73 38 34 -39 c18 -21 137 -168 264 -326 127 -159 235 -288 240 -288 5
0 7 3 5 8 -2 4 -21 68 -42 142 -21 74 -71 252 -112 394 -40 143 -70 263 -65
268 17 17 138 78 150 75 7 -1 52 -76 98 -167z m-2899 -89 c43 -16 132 -48 198
-71 217 -75 207 -70 200 -99 -11 -42 -34 -91 -43 -91 -5 0 -41 11 -80 25 -101
35 -108 34 -126 -22 -8 -27 -27 -82 -42 -123 -15 -41 -50 -142 -79 -225 -29
-82 -79 -222 -110 -310 -31 -88 -59 -170 -62 -182 -9 -41 -28 -47 -84 -27 -28
11 -54 24 -56 31 -3 7 5 41 17 75 12 35 53 151 90 258 77 220 161 457 192 543
12 34 17 61 12 66 -5 4 -46 21 -91 36 -87 30 -94 38 -74 87 5 13 12 31 15 41
8 24 32 22 123 -12z m1728 -193 c2 -13 6 -41 7 -63 l3 -39 -65 -13 c-36 -6
-107 -15 -158 -19 -63 -5 -95 -11 -99 -20 -3 -7 0 -57 7 -111 7 -54 14 -126
17 -160 7 -84 15 -89 111 -75 163 24 160 24 172 3 13 -25 13 -98 0 -106 -6 -3
-54 -11 -108 -16 -155 -16 -145 -10 -139 -77 18 -193 31 -299 40 -310 7 -9 22
-11 51 -6 109 18 262 30 274 21 7 -5 12 -32 12 -62 l0 -52 -52 -7 c-215 -26
-339 -40 -373 -40 l-40 -1 -7 60 c-8 70 -35 297 -48 405 -13 104 -36 300 -54
455 -8 72 -17 142 -21 156 -4 16 -1 29 7 36 7 6 63 15 123 22 188 20 290 32
294 37 13 13 41 1 46 -18z m-1052 -7 c4 -5 3 -37 -2 -72 -18 -113 -43 -363
-39 -394 3 -30 4 -30 78 -37 41 -3 96 -9 121 -12 l47 -6 11 87 c6 49 15 122
21 163 5 41 12 112 16 158 4 45 11 85 16 88 11 7 99 -5 117 -15 11 -7 11 -29
2 -117 -7 -60 -18 -170 -26 -244 -8 -74 -16 -151 -19 -170 -3 -19 -12 -105
-21 -190 -9 -85 -20 -183 -25 -216 -6 -34 -10 -81 -10 -106 0 -66 -13 -77 -83
-71 l-59 6 5 76 c7 110 35 372 43 398 8 28 9 27 -130 43 -127 14 -136 10 -136
-66 0 -24 -4 -65 -9 -91 -5 -26 -15 -106 -21 -178 -7 -71 -17 -136 -22 -142
-6 -7 -20 -11 -32 -8 -11 2 -39 7 -60 10 l-39 6 7 72 c3 40 11 110 16 157 24
199 60 531 80 735 16 170 10 159 83 151 34 -4 66 -11 70 -15z"/>
</g>
</svg>
